<svg width="150" height="49" viewBox="0 0 150 49" fill="none" xmlns="http://www.w3.org/2000/svg">
<path d="M11.1397 39.5883C10.8641 39.5523 10.6018 39.4448 10.3763 39.2758L1.67865 30.5256C1.33531 30.2495 1.02785 29.9281 0.763897 29.5693C0.550021 29.3324 0.369914 29.0645 0.229299 28.774C0.0732202 28.4533 -0.0053503 28.0976 0.00028923 27.738V26.4645C-0.00540919 26.1054 0.0731713 25.7502 0.229299 25.4301C0.458377 25.1176 0.611179 24.7926 0.763897 24.6332L1.67865 23.6785L10.2999 14.6814C10.5238 14.5196 10.7911 14.4359 11.0635 14.4423C11.2046 14.434 11.3457 14.4577 11.4773 14.5116C11.6088 14.5655 11.7275 14.6485 11.8254 14.7548C12.0016 14.9819 12.1064 15.2602 12.125 15.5517V17.383C12.125 17.5393 12.0486 17.6221 12.0486 17.6955C12.0292 17.8128 11.9772 17.9215 11.8989 18.0081C11.8603 18.0949 11.8099 18.1754 11.7492 18.2471C11.7492 18.3268 11.6727 18.4034 11.5215 18.5596L11.2925 18.7987C11.1706 18.8769 11.0681 18.984 10.9931 19.1112C10.8434 19.2675 10.6935 19.3503 10.6935 19.4237L3.9799 26.6692C3.83017 26.8255 3.68052 26.9817 3.68052 27.1474C3.68634 27.2473 3.71702 27.344 3.76953 27.4278C3.82204 27.5117 3.89449 27.5798 3.9799 27.6255L10.6935 34.5522C10.7787 34.6502 10.8803 34.7312 10.9931 34.7913C11.1428 34.9476 11.2221 35.0288 11.2925 35.0288L11.5215 35.2679L11.7492 35.5069C11.8256 35.5866 11.8255 35.6632 11.8989 35.746C11.9723 35.8288 11.9752 35.9851 12.0486 36.0585C12.0486 36.1382 12.125 36.2976 12.125 36.371V38.393C12.1331 38.5402 12.1105 38.6876 12.0588 38.8249C12.0071 38.9622 11.9275 39.0862 11.8254 39.1883C11.7533 39.3105 11.6525 39.4114 11.5325 39.4815C11.4124 39.5515 11.2772 39.5883 11.1397 39.5883Z" fill="#EE4036"/>
<path d="M19.5319 48.6651C19.3822 48.6651 19.2324 48.426 19.2324 48.0276V47.7901L26.2514 1.85138C26.4012 1.21543 26.551 0.896667 26.786 0.896667H30.9064C31.134 0.896667 31.2059 1.13573 31.2059 1.53418V1.77325L24.1869 47.712C24.0372 48.3479 23.8873 48.6667 23.6538 48.6667L19.5319 48.6651Z" fill="#EE4036"/>
<path d="M37.8432 43.3306C37.7306 43.3414 37.6172 43.3256 37.5114 43.2842C37.4056 43.2428 37.3101 43.1769 37.2322 43.0915C37.0824 42.9353 37.0825 42.6134 37.0825 42.1368V7.49997C37.0574 7.17377 37.1088 6.84611 37.2322 6.54525C37.3101 6.45988 37.4056 6.39402 37.5114 6.35262C37.6172 6.31122 37.7306 6.29534 37.8432 6.30619H42.1852C42.2977 6.29534 42.4109 6.31122 42.5167 6.35262C42.6225 6.39402 42.7181 6.45988 42.796 6.54525C42.9457 6.70151 42.9457 7.02339 42.9457 7.49997V21.1956C42.9257 21.3337 42.9528 21.4747 43.0221 21.5941C43.0984 21.7503 43.1717 21.7503 43.2511 21.7503H52.1777C52.2541 21.7503 52.3274 21.6707 52.4053 21.5941C52.4816 21.4378 52.5549 21.355 52.5549 21.1956V7.49997C52.5165 7.16318 52.5982 6.82341 52.7841 6.54525C52.8621 6.45988 52.9574 6.39402 53.0632 6.35262C53.169 6.31122 53.2824 6.29534 53.3949 6.30619H57.8192C57.9204 6.29537 58.0227 6.31164 58.1162 6.35347C58.2097 6.3953 58.2915 6.4613 58.3538 6.54525C58.5036 6.70151 58.5035 7.02339 58.5035 7.49997V42.1431C58.5285 42.4693 58.4772 42.7969 58.3538 43.0978C58.2866 43.1756 58.2041 43.2373 58.1118 43.2786C58.0196 43.3199 57.9196 43.3398 57.8192 43.3368H53.3949C53.2627 43.3577 53.1276 43.3295 53.0131 43.2571L52.7138 42.9446C52.6123 42.693 52.5614 42.4223 52.5641 42.1493V26.3708C52.5641 25.9723 52.4876 25.8145 52.2645 25.8145H43.2617C43.0326 25.8145 42.9621 25.9708 42.9621 26.3708V42.1431C43.0005 42.4798 42.9191 42.8196 42.7331 43.0978C42.6552 43.1831 42.5597 43.249 42.4539 43.2904C42.3481 43.3318 42.2348 43.3477 42.1223 43.3368L37.8432 43.3306Z" fill="#EE4036"/>
<path d="M69.5817 43.3306C69.4805 43.3414 69.3782 43.3251 69.2847 43.2833C69.1912 43.2415 69.1094 43.1755 69.0471 43.0915C68.8612 42.8134 68.7797 42.4736 68.8181 42.1368V11.0829C68.8181 10.686 68.7417 10.4469 68.5186 10.4469H62.8741C62.7973 10.4469 62.7208 10.3672 62.6449 10.2079C62.5725 9.97681 62.5464 9.73265 62.5685 9.49064V7.42028C62.5394 7.11975 62.5914 6.81669 62.7184 6.54526C62.7962 6.4601 62.8912 6.39437 62.9968 6.35297C63.1023 6.31158 63.2155 6.29559 63.3277 6.30619H80.1896C80.2906 6.29565 80.3925 6.31205 80.4857 6.35387C80.5789 6.39569 80.6604 6.46154 80.7226 6.54526C80.8723 6.70151 80.8725 7.0234 80.8725 7.42028V9.48596C80.8948 9.76097 80.8428 10.037 80.7226 10.2829C80.5413 10.4032 80.3273 10.4581 80.1132 10.4391H75.0017C74.7727 10.4391 74.7022 10.6782 74.7022 11.0751V42.1431C74.7378 42.5048 74.6573 42.8687 74.4732 43.1775C74.3952 43.2628 74.2999 43.3287 74.1941 43.3701C74.0883 43.4115 73.9749 43.4274 73.8624 43.4165H69.5907L69.5817 43.3306Z" fill="#EE4036"/>
<path d="M85.2218 43.3306C84.7637 43.3306 84.5346 42.9321 84.5346 42.0571V41.9009L85.9076 7.66247C85.9076 6.70776 86.207 6.22962 86.6712 6.22962H91.401C91.6734 6.22322 91.9407 6.3069 92.1647 6.46869C92.2987 6.58743 92.4083 6.7332 92.4871 6.89726C92.5658 7.06131 92.612 7.24027 92.6229 7.4234L97.658 31.7881C97.6666 31.8474 97.6934 31.9022 97.7344 31.9444H97.884C97.9604 31.9444 97.9604 31.8647 97.9604 31.7881L102.996 7.58278C103.145 6.78745 103.53 6.30931 104.139 6.30931H108.946C109.404 6.30931 109.633 6.86713 109.633 7.74216L111.006 41.9806V42.1368C111.006 42.9321 110.777 43.4103 110.244 43.4103H106.963C106.505 43.4103 106.2 42.9321 106.2 42.0571L105.285 15.4627C105.285 15.383 105.285 15.3064 105.208 15.3064C105.132 15.3064 105.132 15.3064 105.059 15.3861L99.6419 42.1431C99.4922 42.9384 99.1073 43.4165 98.6491 43.4165H96.7417C96.2851 43.4165 95.9033 43.0181 95.7506 42.1431L90.4863 15.5486C90.4863 15.4689 90.4098 15.3924 90.3364 15.4689V15.6252L89.3453 41.9806C89.3453 42.9353 89.1162 43.3337 88.6581 43.3337L85.2218 43.3306Z" fill="#EE4036"/>
<path d="M118.181 43.3306C118.08 43.342 117.977 43.326 117.884 43.2842C117.791 43.2423 117.709 43.1759 117.648 43.0915C117.498 42.9353 117.498 42.6134 117.498 42.1368V7.49996C117.473 7.17376 117.524 6.84607 117.648 6.54525C117.714 6.46725 117.797 6.40544 117.889 6.36414C117.981 6.32284 118.08 6.30306 118.181 6.30618H122.606C122.707 6.29564 122.809 6.31204 122.903 6.35386C122.996 6.39568 123.077 6.46154 123.14 6.54525C123.289 6.70151 123.289 7.02339 123.289 7.49996V38.7133C123.289 39.1102 123.439 39.2695 123.671 39.2695H131.457C131.646 39.2608 131.833 39.3156 131.99 39.4258C132.139 39.5821 132.139 39.8242 132.139 40.2227V42.2993C132.149 42.5987 132.098 42.8969 131.99 43.1743C131.918 43.2404 131.833 43.2887 131.74 43.3158C131.648 43.3428 131.551 43.3479 131.457 43.3306H118.181Z" fill="#EE4036"/>
<path d="M139.009 39.5883C138.878 39.6036 138.746 39.5827 138.626 39.5279C138.506 39.473 138.401 39.3861 138.323 39.2758C138.147 39.0492 138.043 38.7714 138.024 38.4805V36.7226C138.014 36.6124 138.041 36.5019 138.1 36.4101C138.1 36.3304 138.176 36.2538 138.176 36.171C138.205 36.1396 138.227 36.1019 138.24 36.0605C138.254 36.0192 138.258 35.9752 138.253 35.932C138.253 35.8523 138.329 35.7757 138.402 35.6929C138.476 35.6101 138.552 35.5366 138.552 35.4538C138.552 35.371 138.628 35.3741 138.702 35.2147L138.931 34.9772C139.006 34.9772 139.081 34.8976 139.159 34.7382C139.311 34.658 139.388 34.5783 139.388 34.4991L146.101 27.3333C146.168 27.2735 146.223 27.2005 146.262 27.1184C146.301 27.0362 146.325 26.9468 146.33 26.8552C146.324 26.7552 146.294 26.6586 146.241 26.5748C146.189 26.491 146.116 26.4228 146.031 26.377L139.392 19.4503C139.277 19.331 139.149 19.2262 139.01 19.1378C138.861 18.9815 138.711 18.8987 138.711 18.8253L138.482 18.5862C138.332 18.4299 138.253 18.3487 138.253 18.2737C138.253 18.1987 138.176 18.1174 138.103 17.9612C138.03 17.8049 138.027 17.7221 137.953 17.5627V15.383C137.948 15.0991 138.048 14.8242 138.234 14.6163C138.419 14.4084 138.674 14.2838 138.946 14.2689C139.227 14.2795 139.496 14.3897 139.708 14.5814L148.406 23.4191L149.322 24.3738C149.506 24.5873 149.658 24.8292 149.771 25.091C149.919 25.4142 149.997 25.7673 150 26.1254V27.7974C150 27.8771 149.924 28.0364 149.924 28.1099C149.872 28.2048 149.845 28.3129 149.847 28.4224C149.847 28.5021 149.771 28.5786 149.698 28.7349C149.659 28.8216 149.608 28.902 149.548 28.974C149.486 29.089 149.409 29.1943 149.319 29.2865L149.09 29.524L148.79 29.8365C148.641 29.9927 148.491 30.0755 148.491 30.149L139.843 39.1898C139.62 39.4237 139.324 39.5653 139.009 39.5883Z" fill="#EE4036"/>
</svg>
